<?xml version="1.0" standalone="no"?>
<svg viewBox="0 0 200 200" xmlns="http://www.w3.org/2000/svg">
  <path fill="#64FFDA" d="M46.3,-72.7C56.8,-65.4,59.7,-47,61.8,-31.5C63.8,-15.9,65,-3.2,63.2,9.1C61.5,21.4,56.8,33.3,48.8,42C40.8,50.7,29.4,56.2,16.1,64.4C2.8,72.7,-12.5,83.7,-27.8,84C-43.1,84.4,-58.5,74.2,-67.4,60.4C-76.3,46.5,-78.8,29.1,-80.7,12C-82.7,-5.2,-84,-22.1,-79.2,-37.7C-74.5,-53.3,-63.6,-67.6,-49.3,-73.2C-35.1,-78.7,-17.6,-75.4,0.2,-75.7C18,-76,35.9,-79.9,46.3,-72.7Z" transform="translate(100 100)" />
</svg>
